<svg width="473" height="1024" viewBox="0 0 473 1024" fill="none" xmlns="http://www.w3.org/2000/svg">
<path d="M115.8 1024L137.4 1002.67C159 981.333 202.2 938.667 205.88 896C209.72 853.333 173.88 810.667 123.8 768C73.72 725.333 9.08 682.667 25.72 640C42.2 597.333 139.8 554.667 150.2 512C160.6 469.333 83.8 426.667 74.52 384C65.08 341.333 123.32 298.667 122.2 256C121.08 213.333 60.92 170.667 30.68 128C0.599957 85.3333 0.599976 42.6667 0.599976 21.3333V0H511V21.3333C511 42.6667 511 85.3333 511 128C511 170.667 511 213.333 511 256C511 298.667 511 341.333 511 384C511 426.667 511 469.333 511 512C511 554.667 511 597.333 511 640C511 682.667 511 725.333 511 768C511 810.667 511 853.333 511 896C511 938.667 511 981.333 511 1002.67V1024H115.8Z" fill="#F4EBCD"/>
</svg>
