<svg width="3316" height="1024" viewBox="0 0 3316 1024" fill="none" xmlns="http://www.w3.org/2000/svg">
<path d="M1374.69 981.857C1344.6 981.857 1320.34 973.427 1301.9 957.409C1283.46 940.97 1274.25 918.208 1274.25 888.701V721.78C1274.25 686.372 1282.49 659.395 1298.51 640.848C1314.52 622.301 1340.72 613.027 1376.63 613.027C1396.52 613.027 1413.99 615.978 1429.51 622.301C1445.04 628.624 1457.17 638.319 1465.91 650.543C1474.64 663.188 1479.01 679.206 1479.01 698.174V760.559H1396.03V707.026C1396.03 696.488 1394.58 688.901 1391.18 685.107C1388.27 681.314 1383.42 679.628 1376.63 679.628C1368.86 679.628 1363.53 682.157 1361.1 686.793C1358.19 691.852 1357.22 698.174 1357.22 706.183V887.858C1357.22 897.553 1358.67 904.719 1362.07 908.934C1365.47 913.15 1370.32 915.257 1376.63 915.257C1383.9 915.257 1388.76 912.728 1391.67 907.67C1394.58 902.19 1396.03 895.867 1396.03 887.858V822.523H1479.98V890.809C1479.98 922.845 1470.76 946.028 1452.32 960.36C1433.88 974.692 1408.17 981.857 1374.69 981.857Z" fill="#F7B520" fill-opacity="0.96"/>
<path d="M1604.07 982.001C1569.13 982.001 1543.42 973.571 1527.4 956.71C1510.91 939.428 1502.66 914.558 1502.66 881.679V616.543H1583.69V878.729C1583.69 885.051 1584.17 890.531 1584.66 896.011C1585.63 901.912 1587.57 906.127 1590 909.921C1592.91 913.293 1597.76 915.401 1604.07 915.401C1610.38 915.401 1615.23 913.293 1618.14 909.921C1620.57 906.549 1622.51 901.912 1623.48 896.432C1623.96 890.531 1624.45 885.051 1624.45 878.729V616.543H1705.48V881.679C1705.48 914.558 1697.23 939.428 1680.73 956.71C1664.24 973.571 1638.52 982.001 1604.07 982.001Z" fill="#F7B520" fill-opacity="0.96"/>
<path d="M1737.46 978.629V616.543H1820.91V917.087H1906.8V978.629H1737.46Z" fill="#F7B520" fill-opacity="0.96"/>
<path d="M1951.01 978.629V686.094H1901.52V616.543H2083.96V686.094H2034.47V978.629H1951.01Z" fill="#F7B520" fill-opacity="0.96"/>
<path d="M2203.84 982.001C2168.9 982.001 2143.19 973.571 2127.17 956.71C2110.68 939.428 2102.43 914.558 2102.43 881.679V616.543H2183.46V878.729C2183.46 885.051 2183.94 890.531 2184.43 896.011C2185.4 901.912 2187.34 906.127 2189.77 909.921C2192.68 913.293 2197.53 915.401 2203.84 915.401C2210.15 915.401 2215 913.293 2217.91 909.921C2220.33 906.549 2222.28 901.912 2223.25 896.432C2223.73 890.531 2224.22 885.051 2224.22 878.729V616.543H2305.25V881.679C2305.25 914.558 2297 939.428 2280.5 956.71C2264 973.571 2238.29 982.001 2203.84 982.001Z" fill="#F7B520" fill-opacity="0.96"/>
<path d="M2336.73 978.629V616.543H2464.83C2486.18 616.543 2502.19 620.758 2512.87 629.189C2524.03 637.619 2531.31 649.422 2535.19 664.596C2538.58 679.771 2540.53 697.475 2540.53 717.708C2540.53 737.519 2537.61 753.537 2531.79 765.34C2525.97 777.142 2515.29 785.151 2499.28 789.788C2512.38 791.895 2521.6 797.797 2526.94 806.649C2532.28 815.5 2534.7 827.303 2534.7 841.635V978.629H2452.7V836.998C2452.7 826.46 2450.28 819.716 2444.94 817.187C2440.09 814.657 2432.32 813.393 2421.16 813.393V978.629H2336.73ZM2421.65 750.586H2441.54C2453.19 750.586 2459.01 739.627 2459.01 717.708C2459.01 703.798 2457.55 694.524 2455.13 689.887C2452.7 685.672 2447.85 683.565 2441.06 683.565H2421.65V750.586Z" fill="#F7B520" fill-opacity="0.96"/>
<path d="M2682.06 978.629V616.543H2765.51V917.087H2851.4V978.629H2682.06Z" fill="#F7B520" fill-opacity="0.96"/>
<path d="M2863.31 978.629L2903.59 616.543H3044.78L3084.57 978.629H3005.48L2999.66 920.037H2949.2L2944.34 978.629H2863.31ZM2955.5 862.289H2993.35L2974.91 678.085H2971.03L2955.5 862.289Z" fill="#F7B520" fill-opacity="0.96"/>
<path d="M3110.39 978.629V616.543H3223.45C3253.53 616.543 3275.85 622.866 3289.44 635.511C3303.51 648.579 3310.3 669.655 3310.3 699.161V715.179C3310.3 732.039 3306.9 745.95 3299.63 756.488C3292.83 767.026 3282.16 773.77 3267.6 777.142C3286.53 781.357 3299.14 791.052 3305.45 806.227C3311.76 821.402 3315.15 839.527 3315.15 861.446C3315.15 885.051 3312.73 905.284 3307.39 922.988C3302.54 940.692 3293.32 954.181 3280.22 963.876C3266.63 973.571 3247.71 978.629 3223.45 978.629H3110.39ZM3191.91 752.694H3208.89C3216.65 752.694 3221.51 750.165 3223.93 745.107C3226.36 739.627 3227.33 733.726 3227.33 726.138V689.887C3227.33 678.085 3221.51 672.184 3209.38 672.184H3191.91V752.694ZM3200.16 914.979C3221.99 914.979 3232.67 905.706 3232.67 888.002V842.899C3232.67 832.361 3230.73 824.352 3227.33 818.451C3223.93 812.55 3217.14 809.599 3207.44 809.599H3191.91V914.558C3195.3 914.558 3198.22 914.979 3200.16 914.979Z" fill="#F7B520" fill-opacity="0.96"/>
<path d="M1275.45 238.778C1297.72 234.435 1318.17 232.461 1337.72 232.461C1357.26 232.461 1374.53 233.251 1389.98 234.435C1404.98 235.62 1420.43 237.989 1435.89 241.542C1468.61 249.833 1488.61 260.494 1496.33 273.918C1498.15 277.076 1499.52 280.235 1499.52 284.183C1499.52 295.239 1488.15 307.478 1464.97 320.902C1449.98 329.589 1428.62 338.275 1400.44 347.356C1469.52 350.514 1515.88 359.596 1540.42 373.415C1554.05 380.916 1560.87 389.602 1560.87 399.868C1560.87 413.687 1549.96 427.901 1527.24 442.904C1502.7 459.092 1471.34 472.122 1433.16 482.782C1398.16 492.258 1365.44 497.391 1334.99 497.391C1312.27 497.391 1292.27 494.232 1275.45 488.309C1275 472.122 1274.54 455.144 1273.63 437.377C1270.91 398.684 1270 365.913 1270 339.459C1270 313.006 1270.91 284.973 1273.18 256.151C1269.54 256.151 1266.82 256.151 1264.09 255.361C1261.36 254.571 1260 252.202 1260 247.859C1260 241.542 1265.45 238.778 1275.45 238.778ZM1315.45 469.358C1363.17 466.989 1402.26 461.856 1432.71 454.354C1463.16 446.853 1485.43 438.561 1498.61 429.48C1512.24 420.794 1519.06 412.108 1519.06 404.211C1519.06 393.156 1509.97 384.47 1492.24 378.152C1473.16 371.44 1447.7 368.282 1415.89 368.282C1384.08 368.282 1346.81 371.835 1304.99 379.337L1315.45 469.358ZM1356.81 257.335H1345.9C1321.36 257.335 1307.72 259.704 1304.99 264.047L1300.45 341.433C1327.26 341.433 1359.53 335.906 1397.71 324.851C1422.71 317.349 1440.89 309.452 1452.25 300.371C1458.16 295.633 1461.34 290.895 1461.34 286.158C1461.34 281.025 1459.07 277.076 1454.98 273.918C1450.43 270.759 1444.98 267.995 1438.16 266.021C1431.8 264.047 1424.07 262.468 1416.34 261.283C1408.16 260.099 1399.98 259.309 1392.26 258.52C1380.44 257.73 1368.62 257.335 1356.81 257.335Z" fill="#27292B" fill-opacity="0.96"/>
<path d="M1589.74 344.898C1589.29 331.079 1588.38 318.839 1587.92 307.784C1587.47 296.729 1587.01 288.832 1587.01 283.304C1586.56 278.172 1584.29 265.142 1579.29 244.611C1582.01 241.453 1584.74 238.689 1587.47 235.925C1589.74 233.161 1593.38 231.582 1598.38 231.582C1608.37 231.582 1616.56 269.486 1622.01 345.292C1625.19 389.118 1626.55 433.339 1626.55 477.165C1626.55 489.01 1617.01 494.932 1598.38 494.932L1594.74 494.537C1594.74 481.113 1594.29 464.136 1593.38 443.21C1592.47 422.284 1591.56 404.122 1591.1 388.724C1590.65 373.325 1590.19 358.717 1589.74 344.898Z" fill="#27292B" fill-opacity="0.96"/>
<path d="M1827.69 430.419C1805.42 460.821 1775.88 479.378 1739.06 486.485C1730.43 488.064 1722.7 488.854 1715.89 488.854C1708.61 488.854 1703.16 488.854 1698.16 488.854C1693.62 488.854 1688.62 488.064 1683.16 486.88C1677.25 486.09 1672.25 484.511 1667.71 482.142C1656.8 476.614 1650.89 469.112 1650.89 459.242C1649.98 454.504 1649.53 449.371 1649.53 443.843C1649.53 437.921 1650.89 430.419 1653.62 420.549C1656.8 411.073 1662.26 400.807 1669.98 389.752C1677.71 378.697 1687.25 368.826 1698.62 359.35C1721.79 340.004 1747.25 327.369 1774.51 321.447C1782.7 320.262 1789.97 319.473 1796.33 319.473C1803.15 319.473 1809.06 319.867 1814.51 320.657C1831.78 320.657 1843.14 330.528 1849.05 351.059C1852.69 363.693 1855.41 381.855 1855.87 404.755C1856.78 427.656 1857.23 445.423 1858.14 458.057C1859.05 470.297 1860.87 481.747 1863.59 492.012H1837.69C1836.33 485.3 1835.42 478.983 1834.96 473.456C1834.05 468.323 1833.6 463.19 1833.14 458.452C1831.78 447.792 1829.96 438.316 1827.69 430.419ZM1825.87 370.8C1825.87 355.797 1817.69 348.295 1800.88 348.295C1798.6 347.9 1796.33 347.9 1794.51 347.9C1772.7 347.9 1749.97 356.981 1726.34 374.749C1714.98 383.04 1705.43 392.516 1697.25 402.781C1685.43 417.39 1679.53 430.419 1679.53 441.869C1679.53 457.268 1689.53 465.954 1709.52 469.112C1736.34 468.323 1761.79 458.057 1785.88 437.131C1796.33 428.445 1804.97 418.574 1811.78 407.914C1821.33 393.7 1825.87 381.461 1825.87 370.8Z" fill="#27292B" fill-opacity="0.96"/>
<path d="M2064.16 453.982C2076.43 449.639 2088.25 445.691 2099.61 442.137C2110.97 438.584 2122.33 437.004 2132.79 437.004C2143.24 437.004 2148.24 439.768 2148.24 445.296C2148.24 446.48 2148.24 448.454 2147.33 451.218C2146.42 453.982 2142.79 457.141 2135.52 461.089C2128.24 464.642 2119.15 468.196 2108.7 471.354C2098.25 474.908 2086.88 478.066 2074.16 480.83C2061.89 483.594 2049.62 485.963 2037.8 487.937C2013.26 492.28 1995.99 494.649 1985.53 494.649C1975.08 494.649 1964.17 493.465 1951.9 491.491C1940.08 489.516 1928.72 486.358 1918.72 481.62C1894.64 470.565 1882.36 454.772 1882.36 433.846V424.37C1882.36 420.027 1884.64 413.315 1889.18 404.628C1893.73 395.942 1900.54 387.256 1909.18 378.965C1918.27 370.278 1928.27 362.382 1940.08 354.88C1965.08 339.482 1990.99 329.611 2018.26 324.873C2027.8 323.294 2035.98 322.109 2042.34 322.109C2048.71 322.109 2053.71 322.504 2057.8 322.504C2061.89 322.504 2066.43 322.899 2070.98 323.294C2075.07 323.689 2079.16 324.478 2082.34 326.058C2090.07 329.611 2093.7 335.928 2093.7 345.799C2093.7 352.116 2088.7 358.039 2078.7 363.961C2075.98 365.54 2073.7 366.725 2071.89 368.304C2070.07 362.382 2068.25 357.249 2065.98 353.301C2063.71 348.958 2058.25 346.984 2050.53 346.984C2015.53 353.301 1985.53 363.171 1960.08 375.806C1931.9 390.415 1917.81 405.813 1917.81 422.001C1917.81 423.975 1917.81 425.949 1918.27 427.923C1918.27 444.506 1925.54 455.956 1939.63 463.063C1950.99 468.196 1965.08 470.565 1982.35 470.565C1999.62 470.565 2014.62 468.985 2027.35 465.432C2040.07 461.878 2052.34 458.325 2064.16 453.982Z" fill="#27292B" fill-opacity="0.96"/>
<path d="M2216.37 423.874L2218.65 457.434C2218.65 477.965 2213.19 490.6 2201.83 494.943C2199.56 495.732 2196.38 496.127 2193.2 496.127C2190.01 496.127 2186.38 495.338 2181.83 494.153L2182.29 350.041C2182.29 329.115 2180.92 308.189 2178.2 287.263C2175.02 266.338 2173.65 245.412 2173.65 224.486C2173.65 216.589 2178.65 212.246 2189.11 212.246H2192.29C2194.56 212.246 2195.92 212.246 2196.38 212.641C2200.92 228.434 2203.65 247.781 2205.47 270.681C2208.65 320.824 2211.38 354.384 2214.1 371.362C2219.1 369.388 2230.46 362.675 2247.73 352.015C2265.46 340.96 2279.55 332.274 2290 325.957C2300.91 319.244 2310.91 313.322 2320.45 307.4C2342.27 294.765 2356.36 288.448 2361.81 288.448C2366.81 288.448 2370.45 291.212 2373.17 295.95C2358.18 312.138 2334.54 330.3 2301.82 350.041C2288.18 357.938 2275 365.834 2261.82 373.731C2248.64 381.627 2236.83 389.524 2225.92 398.21C2245.46 402.948 2264.55 407.686 2282.28 412.424C2300 417.557 2316.82 422.295 2333.63 426.243C2371.81 436.113 2404.53 441.641 2432.26 442.826C2432.26 449.932 2431.35 454.276 2429.98 456.25C2427.26 459.803 2421.8 462.172 2413.62 462.567H2409.99C2391.81 458.224 2367.72 453.091 2338.18 447.958C2279.09 437.298 2238.64 429.401 2216.37 423.874Z" fill="#27292B" fill-opacity="0.96"/>
<path d="M2468.11 238.778C2490.38 234.435 2510.83 232.461 2530.38 232.461C2549.92 232.461 2567.19 233.251 2582.64 234.435C2597.64 235.62 2613.1 237.989 2628.55 241.542C2661.27 249.833 2681.27 260.494 2688.99 273.918C2690.81 277.076 2692.18 280.235 2692.18 284.183C2692.18 295.239 2680.81 307.478 2657.64 320.902C2642.64 329.589 2621.28 338.275 2593.1 347.356C2662.18 350.514 2708.54 359.596 2733.08 373.415C2746.72 380.916 2753.53 389.602 2753.53 399.868C2753.53 413.687 2742.62 427.901 2719.9 442.904C2695.36 459.092 2664 472.122 2625.82 482.782C2590.83 492.258 2558.1 497.391 2527.65 497.391C2504.93 497.391 2484.93 494.232 2468.11 488.309C2467.66 472.122 2467.2 455.144 2466.29 437.377C2463.57 398.684 2462.66 365.913 2462.66 339.459C2462.66 313.006 2463.57 284.973 2465.84 256.151C2462.2 256.151 2459.48 256.151 2456.75 255.361C2454.02 254.571 2452.66 252.202 2452.66 247.859C2452.66 241.542 2458.11 238.778 2468.11 238.778ZM2508.11 469.358C2555.83 466.989 2594.92 461.856 2625.37 454.354C2655.82 446.853 2678.09 438.561 2691.27 429.48C2704.9 420.794 2711.72 412.108 2711.72 404.211C2711.72 393.156 2702.63 384.47 2684.9 378.152C2665.82 371.44 2640.36 368.282 2608.55 368.282C2576.74 368.282 2539.47 371.835 2497.65 379.337L2508.11 469.358ZM2549.47 257.335H2538.56C2514.02 257.335 2500.38 259.704 2497.65 264.047L2493.11 341.433C2519.92 341.433 2552.19 335.906 2590.37 324.851C2615.37 317.349 2633.55 309.452 2644.91 300.371C2650.82 295.633 2654 290.895 2654 286.158C2654 281.025 2651.73 277.076 2647.64 273.918C2643.09 270.759 2637.64 267.995 2630.82 266.021C2624.46 264.047 2616.73 262.468 2609 261.283C2600.82 260.099 2592.64 259.309 2584.92 258.52C2573.1 257.73 2561.28 257.335 2549.47 257.335Z" fill="#27292B" fill-opacity="0.96"/>
<path d="M2814.29 313.339C2818.38 361.508 2821.56 417.178 2824.29 480.351C2822.47 488.247 2815.2 492.196 2802.93 492.196C2799.74 492.196 2796.11 491.801 2792.93 490.616C2789.29 489.432 2787.47 487.852 2786.56 485.878V313.339H2814.29ZM2772.93 260.826C2772.93 251.745 2779.29 247.402 2791.11 247.402C2799.29 247.402 2805.65 248.982 2810.65 252.14C2811.56 254.904 2812.02 257.668 2812.02 260.432C2812.02 263.195 2811.11 265.564 2808.83 268.328C2806.11 270.697 2802.93 272.276 2797.93 272.276C2793.38 272.276 2788.38 271.092 2783.84 269.118C2778.84 267.144 2775.66 264.38 2772.93 260.826Z" fill="#27292B" fill-opacity="0.96"/>
<path d="M3061.33 354.331C3049.06 346.434 3032.7 342.486 3013.15 342.486C2994.97 342.486 2978.16 345.645 2962.25 351.567C2932.71 362.228 2912.26 376.047 2901.35 393.024C2896.8 400.921 2894.53 409.212 2894.53 417.898V430.533C2894.53 437.64 2895.89 447.116 2898.62 459.355C2901.8 471.2 2903.17 483.44 2903.17 495.679C2897.26 496.074 2891.8 496.469 2888.17 497.653C2884.53 498.443 2880.9 499.233 2878.62 499.233C2875.9 499.233 2873.62 498.048 2871.35 496.074C2869.53 494.1 2867.26 490.152 2864.99 484.229C2864.99 482.65 2864.08 478.307 2863.17 470.805C2862.26 463.698 2861.35 455.012 2859.99 444.747C2858.63 434.481 2857.26 423.426 2855.44 411.186C2854.08 398.947 2852.26 386.707 2850.9 374.862C2847.72 349.198 2844.99 330.246 2843.17 318.402C2843.17 312.084 2848.63 308.926 2859.08 308.926C2864.99 308.926 2869.99 311.295 2873.62 315.638C2877.26 320.376 2879.99 325.509 2881.8 331.036C2884.08 336.959 2885.44 342.881 2886.35 348.409C2886.8 353.936 2887.71 357.884 2888.17 360.253C2927.25 329.852 2975.88 314.848 3033.6 314.848C3040.42 314.848 3047.24 314.848 3054.06 315.243C3055.87 314.848 3058.15 314.848 3060.87 314.848C3063.6 314.848 3066.33 316.428 3068.6 319.586C3072.24 323.14 3073.6 327.483 3073.6 332.615C3073.6 345.25 3069.51 352.752 3061.33 354.331Z" fill="#27292B" fill-opacity="0.96"/>
<path d="M3304.02 185C3304.02 209.479 3303.11 233.564 3301.75 257.253C3299.93 280.548 3298.57 303.843 3297.21 326.348C3295.84 348.854 3295.39 372.543 3295.39 397.812C3295.39 423.081 3297.21 449.929 3301.3 478.357C3301.3 484.279 3300.39 488.623 3297.66 490.992C3295.39 493.755 3290.84 494.94 3284.93 494.94C3271.3 494.94 3264.03 485.069 3264.03 464.933V452.298C3222.21 479.542 3186.76 492.966 3157.68 492.966C3146.31 492.966 3134.5 490.597 3122.23 485.859C3110.41 480.726 3099.05 470.855 3088.59 455.852C3086.78 449.929 3086.32 443.612 3086.32 436.9C3086.32 430.583 3087.69 423.081 3090.41 413.605C3093.14 404.524 3099.05 395.048 3107.68 385.573C3116.32 375.702 3127.23 367.016 3139.5 359.514C3166.77 343.721 3196.31 335.824 3227.67 335.824C3241.3 335.824 3254.48 337.404 3266.75 340.957C3266.75 336.614 3267.21 328.322 3268.12 316.872C3268.57 305.422 3269.48 293.183 3270.39 280.154C3272.21 246.593 3273.57 226.852 3274.03 220.929C3274.48 215.007 3275.39 209.874 3276.3 205.531C3277.66 201.188 3279.03 197.634 3281.3 194.476C3285.39 188.159 3293.12 185 3304.02 185ZM3118.59 434.136C3118.59 454.273 3127.23 464.538 3144.04 464.538C3146.77 464.538 3149.5 464.143 3152.68 463.748C3164.95 463.748 3179.95 460.59 3197.67 454.273C3231.3 442.823 3251.76 432.952 3259.48 424.266V372.938C3259.48 364.252 3250.85 359.514 3234.03 359.514C3231.76 359.514 3229.03 359.119 3225.85 359.119C3222.21 359.119 3217.22 359.909 3209.94 361.093C3203.13 362.278 3194.95 364.647 3186.31 368.2C3177.22 371.359 3168.58 375.702 3159.95 380.44C3141.77 391.1 3129.5 403.34 3122.68 417.554C3119.95 422.686 3118.59 428.214 3118.59 434.136Z" fill="#27292B" fill-opacity="0.96"/>
<path fill-rule="evenodd" clip-rule="evenodd" d="M0.022806 416.459C0.0114076 415.043 0 413.617 0 412.191C0 184.692 239.594 0 534.71 0C829.837 0 1069.43 184.692 1069.43 412.191C1069.43 413.617 1069.42 415.043 1069.41 416.459H1069.43V1023.01H0V416.459H0.022806Z" fill="#27292B" stroke="#F7B520" stroke-width="0.000669907" stroke-miterlimit="1.5" stroke-linecap="round" stroke-linejoin="round"/>
<path d="M1010.48 748.828H570.296V993.371H1010.48V748.828Z" fill="#4F5154" fill-opacity="0.96" stroke="#F7B520" stroke-width="0.000650713" stroke-miterlimit="1.5" stroke-linecap="round" stroke-linejoin="round"/>
<path d="M225.87 777.832H67.2959V1022.37H225.87V777.832Z" fill="#4F5154" fill-opacity="0.96" stroke="#F7B520" stroke-width="0.000669907" stroke-miterlimit="1.5" stroke-linecap="round" stroke-linejoin="round"/>
<path d="M652.472 185.449H426.371V371.19H652.472V185.449Z" fill="#4F5154" fill-opacity="0.96" stroke="#F7B520" stroke-width="0.000665694" stroke-miterlimit="1.5" stroke-linecap="round" stroke-linejoin="round"/>
<path fill-rule="evenodd" clip-rule="evenodd" d="M1055.95 409.658C1054.27 409.658 1052.9 408.436 1052.9 406.934H18.7791C18.7791 408.436 17.4011 409.658 15.7188 409.658V410.264C17.4011 410.264 18.7791 411.485 18.7791 412.99H1052.9C1052.9 411.485 1054.27 410.264 1055.95 410.264V409.658Z" fill="#F7B520" stroke="#F7B520" stroke-width="0.00037004" stroke-miterlimit="1.5" stroke-linecap="round" stroke-linejoin="round"/>
</svg>
