<svg width="1070" height="1024" viewBox="0 0 1070 1024" fill="none" xmlns="http://www.w3.org/2000/svg">
<path fill-rule="evenodd" clip-rule="evenodd" d="M0.022806 416.459C0.0114076 415.043 0 413.617 0 412.191C0 184.692 239.594 0 534.71 0C829.837 0 1069.43 184.692 1069.43 412.191C1069.43 413.617 1069.42 415.043 1069.41 416.459H1069.43V1023.01H0V416.459H0.022806Z" fill="#27292B" stroke="#F7B520" stroke-width="0.000669907" stroke-miterlimit="1.5" stroke-linecap="round" stroke-linejoin="round"/>
<path d="M1010.48 748.828H570.296V993.371H1010.48V748.828Z" fill="#4F5154" fill-opacity="0.96" stroke="#F7B520" stroke-width="0.000650713" stroke-miterlimit="1.5" stroke-linecap="round" stroke-linejoin="round"/>
<path d="M225.87 777.832H67.2959V1022.37H225.87V777.832Z" fill="#4F5154" fill-opacity="0.96" stroke="#F7B520" stroke-width="0.000669907" stroke-miterlimit="1.5" stroke-linecap="round" stroke-linejoin="round"/>
<path d="M652.472 185.449H426.371V371.19H652.472V185.449Z" fill="#4F5154" fill-opacity="0.96" stroke="#F7B520" stroke-width="0.000665694" stroke-miterlimit="1.5" stroke-linecap="round" stroke-linejoin="round"/>
<path fill-rule="evenodd" clip-rule="evenodd" d="M1055.95 409.658C1054.27 409.658 1052.9 408.436 1052.9 406.934H18.7791C18.7791 408.436 17.4011 409.658 15.7188 409.658V410.264C17.4011 410.264 18.7791 411.485 18.7791 412.99H1052.9C1052.9 411.485 1054.27 410.264 1055.95 410.264V409.658Z" fill="#F7B520" stroke="#F7B520" stroke-width="0.00037004" stroke-miterlimit="1.5" stroke-linecap="round" stroke-linejoin="round"/>
</svg>
